Coordinates
version=1
nRows=9
nColumns=36
inDegrees=yes

Units are S.I. units (second, meters, Newtons, ...)
If the header above contains a line with 'inDegrees', this indicates whether rotational values are in degrees (yes) or radians (no).

endheader
time	pelvis_tilt	pelvis_list	pelvis_rotation	pelvis_tx	pelvis_ty	pelvis_tz	hip_flexion_r	hip_adduction_r	hip_rotation_r	knee_angle_r	knee_angle_r_beta	ankle_angle_r	subtalar_angle_r	mtp_angle_r	hip_flexion_l	hip_adduction_l	hip_rotation_l	knee_angle_l	knee_angle_l_beta	ankle_angle_l	subtalar_angle_l	mtp_angle_l	lumbar_extension	lumbar_bending	lumbar_rotation	arm_flex_r	arm_add_r	arm_rot_r	elbow_flex_r	pro_sup_r	arm_flex_l	arm_add_l	arm_rot_l	elbow_flex_l	pro_sup_l
      0.00000000	      4.56002310	     -0.05101306	     -6.69065762	      0.74125025	      0.93072617	      0.83094607	     -3.93444342	      1.76554945	      2.07039820	      8.26916707	      0.14432419	      6.91913700	     -9.49771547	     -6.88676535	     12.39363801	     -2.09956037	     -4.90874653	     41.07328651	      0.71686408	      9.62068502	     -8.64601469	     -6.88676535	    -10.73198639	     -0.23914083	      5.39316454	      6.33613688	    -12.36068495	     -4.38724228	     28.84543572	     91.93133425	      6.34763538	     -9.26068727	      5.81929066	     18.63552169	     88.03743393
      0.01666670	      4.23798615	     -0.59827560	     -6.14230223	      0.73963757	      0.92671464	      0.82919598	     -4.44975340	      2.47203101	      1.95963620	      8.55060829	      0.14923627	      8.63381209	     -7.90770555	     -7.10054884	     14.66677834	     -3.05913520	     -5.08125671	     40.20874205	      0.70177494	      9.86663304	     -8.53409919	     -7.10054884	    -10.48352540	      0.44206837	      5.80426524	      6.21453448	    -12.87814186	     -5.48570672	     30.11742397	     93.34911087	      6.78757161	     -9.19633585	      8.60621972	     18.43367510	     92.25984995
      0.03333330	      3.47208408	     -0.52588462	     -5.85970131	      0.73852095	      0.92605279	      0.82818787	     -4.61196044	      2.40757307	      2.18113119	      8.42695754	      0.14707816	      9.34751951	     -7.49172838	     -7.13474464	     16.67835098	     -3.38075765	     -5.17448417	     37.84049665	      0.66044126	      9.21167138	     -7.47202703	     -7.13474464	     -9.61840684	      0.65906941	      5.54442984	      6.91874559	    -13.48581906	     -3.95076095	     30.05238617	     93.27978625	      6.47292318	     -9.52418922	     10.81237003	     18.18119835	     92.87485659
      0.05000000	      1.97187507	     -0.18114680	     -5.81364908	      0.73706020	      0.92568116	      0.82730292	     -3.43085605	      2.04293455	      1.87752205	      8.97614121	      0.15666322	     11.14727949	     -6.21362988	     -7.15421658	     19.33458099	     -3.65202689	     -6.07997035	     34.97892375	      0.61049739	      8.42902766	     -6.30698229	     -7.15421658	     -7.91103962	      0.62519892	      5.35050856	      7.31194523	    -13.74885063	     -3.39462862	     30.20586886	     93.09129040	      5.79709853	     -9.84693486	     12.19758986	     18.09064596	     93.41205500
      0.06666670	      0.60012666	      0.06476125	     -6.22720547	      0.73434088	      0.92478286	      0.82578383	     -2.01541051	      1.69875810	      1.22437343	     10.10067903	      0.17629011	     13.76065120	     -4.13513961	     -7.15556002	     22.00526822	     -4.03102719	     -7.23823338	     32.58060403	      0.56863881	      8.12493458	     -5.14484876	     -7.15556002	     -6.49912185	      0.66743301	      5.53395973	      7.75016332	    -14.00338478	     -3.00512783	     30.39141312	     92.74059715	      5.12807325	     -9.94494202	     12.81007372	     17.98899267	     93.51306457
      0.08333330	     -0.68153083	      0.27800835	     -6.84981921	      0.73168222	      0.92105445	      0.82418232	     -0.53598064	      1.43193707	      1.35333354	     11.45607741	      0.19994627	     15.57903843	     -3.95490102	     -7.19013876	     24.59645501	     -4.35984999	     -8.23789791	     30.25344999	      0.52802231	      7.92895928	     -4.03788366	     -7.19013876	     -5.31469809	      0.78030238	      5.78336622	      8.11493759	    -14.32507693	     -2.18195927	     30.99019436	     93.46787008	      4.48850889	    -10.10863927	     13.79381077	     17.88611649	     95.09763429
      0.10000000	     -1.85837908	      0.36137206	     -7.41833202	      0.73016481	      0.91614053	      0.82266011	      0.64567724	      1.26784254	      0.90372257	     12.68250017	      0.22135139	     17.45509593	     -2.76160127	     -7.27770082	     26.97781128	     -4.63133958	     -8.81261559	     27.71653672	      0.48374482	      8.04562181	     -2.83624289	     -7.27770082	     -4.27502487	      1.09106213	      5.92482792	      8.34591220	    -14.44764397	     -2.56155210	     31.61634595	     95.56452905	      3.72808079	    -10.02336103	     12.82650447	     17.90817772	     98.54794719
      0.11666670	     -2.72522577	      0.37242553	     -7.86058562	      0.73031997	      0.91143401	      0.82118966	      1.07188769	      1.18052931	      0.46283892	     13.51139972	      0.23581841	     18.88634542	     -1.42709210	     -7.29002359	     28.77799370	     -4.74519702	     -8.85427103	     24.81980299	      0.43318728	      8.16262695	     -1.88599869	     -7.29002359	     -3.56252905	      1.42383579	      5.93313044	      8.54682107	    -14.59573325	     -2.25214557	     32.01471445	     94.14639814	      3.15272247	     -9.84499179	     12.33022015	     17.58990076	     97.14564491
      0.13333330	     -3.90699661	      0.37863363	     -8.33517205	      0.73247938	      0.90687516	      0.81991338	      1.45864356	      1.28005517	      0.90593749	     14.06661174	      0.24550869	     19.37844884	     -1.05856856	     -7.31595221	     30.58222624	     -4.96065893	     -8.82644360	     22.06318609	      0.38507524	      8.48481683	     -0.80601468	     -7.31595221	     -2.18062044	      1.74074148	      6.16278448	      8.42403372	    -14.89482493	     -1.28141051	     31.89104372	     94.99434347	      2.56264990	     -9.76387313	     12.67861105	     17.25223195	     98.84872180
